<mxfile host="app.diagrams.net" modified="2022-07-17T16:27:36.954Z" agent="5.0 (Windows NT 10.0; Win64; x64) AppleWebKit/537.36 (KHTML, like Gecko) Chrome/103.0.0.0 Safari/537.36" etag="nIgtsFf8Mtuq-ecJxDie" version="20.1.1" type="github">
  <diagram id="osrCaAaUKTmiYvoEnOzN" name="Page-1">
    <mxGraphModel dx="1422" dy="794" grid="1" gridSize="10" guides="1" tooltips="1" connect="1" arrows="1" fold="1" page="1" pageScale="1" pageWidth="3300" pageHeight="2339" math="0" shadow="0">
      <root>
        <mxCell id="0" />
        <mxCell id="1" parent="0" />
        <mxCell id="rBCPS_vHP3lWqxY93a7a-1" value="1 группа&amp;nbsp;" style="rounded=0;whiteSpace=wrap;html=1;" vertex="1" parent="1">
          <mxGeometry x="60" y="40" width="120" height="60" as="geometry" />
        </mxCell>
        <mxCell id="rBCPS_vHP3lWqxY93a7a-2" value="2 группа" style="rounded=0;whiteSpace=wrap;html=1;" vertex="1" parent="1">
          <mxGeometry x="280" y="40" width="120" height="60" as="geometry" />
        </mxCell>
        <mxCell id="rBCPS_vHP3lWqxY93a7a-3" value="3 группа" style="rounded=0;whiteSpace=wrap;html=1;" vertex="1" parent="1">
          <mxGeometry x="480" y="40" width="120" height="60" as="geometry" />
        </mxCell>
        <mxCell id="rBCPS_vHP3lWqxY93a7a-4" value="4 группа" style="rounded=0;whiteSpace=wrap;html=1;" vertex="1" parent="1">
          <mxGeometry x="680" y="40" width="120" height="60" as="geometry" />
        </mxCell>
        <mxCell id="rBCPS_vHP3lWqxY93a7a-23" value="Кайрат " style="swimlane;fontStyle=0;childLayout=stackLayout;horizontal=1;startSize=30;horizontalStack=0;resizeParent=1;resizeParentMax=0;resizeLast=0;collapsible=1;marginBottom=0;" vertex="1" parent="1">
          <mxGeometry x="270" y="160" width="140" height="180" as="geometry" />
        </mxCell>
        <mxCell id="rBCPS_vHP3lWqxY93a7a-24" value="Асаналиев Темирлан" style="text;strokeColor=none;fillColor=none;align=left;verticalAlign=middle;spacingLeft=4;spacingRight=4;overflow=hidden;points=[[0,0.5],[1,0.5]];portConstraint=eastwest;rotatable=0;" vertex="1" parent="rBCPS_vHP3lWqxY93a7a-23">
          <mxGeometry y="30" width="140" height="30" as="geometry" />
        </mxCell>
        <mxCell id="rBCPS_vHP3lWqxY93a7a-25" value="Курмангалиев Жандос" style="text;strokeColor=none;fillColor=none;align=left;verticalAlign=middle;spacingLeft=4;spacingRight=4;overflow=hidden;points=[[0,0.5],[1,0.5]];portConstraint=eastwest;rotatable=0;" vertex="1" parent="rBCPS_vHP3lWqxY93a7a-23">
          <mxGeometry y="60" width="140" height="30" as="geometry" />
        </mxCell>
        <mxCell id="rBCPS_vHP3lWqxY93a7a-26" value="Салаватов Асылбек" style="text;strokeColor=none;fillColor=none;align=left;verticalAlign=middle;spacingLeft=4;spacingRight=4;overflow=hidden;points=[[0,0.5],[1,0.5]];portConstraint=eastwest;rotatable=0;" vertex="1" parent="rBCPS_vHP3lWqxY93a7a-23">
          <mxGeometry y="90" width="140" height="30" as="geometry" />
        </mxCell>
        <mxCell id="rBCPS_vHP3lWqxY93a7a-27" value="Аскатова Самира" style="text;strokeColor=none;fillColor=none;align=left;verticalAlign=middle;spacingLeft=4;spacingRight=4;overflow=hidden;points=[[0,0.5],[1,0.5]];portConstraint=eastwest;rotatable=0;" vertex="1" parent="rBCPS_vHP3lWqxY93a7a-23">
          <mxGeometry y="120" width="140" height="30" as="geometry" />
        </mxCell>
        <mxCell id="rBCPS_vHP3lWqxY93a7a-28" value="Талайбекова Айдана" style="text;strokeColor=none;fillColor=none;align=left;verticalAlign=middle;spacingLeft=4;spacingRight=4;overflow=hidden;points=[[0,0.5],[1,0.5]];portConstraint=eastwest;rotatable=0;" vertex="1" parent="rBCPS_vHP3lWqxY93a7a-23">
          <mxGeometry y="150" width="140" height="30" as="geometry" />
        </mxCell>
        <mxCell id="rBCPS_vHP3lWqxY93a7a-29" value="Кубаныч" style="swimlane;fontStyle=0;childLayout=stackLayout;horizontal=1;startSize=30;horizontalStack=0;resizeParent=1;resizeParentMax=0;resizeLast=0;collapsible=1;marginBottom=0;" vertex="1" parent="1">
          <mxGeometry x="480" y="160" width="140" height="180" as="geometry" />
        </mxCell>
        <mxCell id="rBCPS_vHP3lWqxY93a7a-30" value="Землянова Валентина" style="text;strokeColor=none;fillColor=none;align=left;verticalAlign=middle;spacingLeft=4;spacingRight=4;overflow=hidden;points=[[0,0.5],[1,0.5]];portConstraint=eastwest;rotatable=0;" vertex="1" parent="rBCPS_vHP3lWqxY93a7a-29">
          <mxGeometry y="30" width="140" height="30" as="geometry" />
        </mxCell>
        <mxCell id="rBCPS_vHP3lWqxY93a7a-31" value="Насыров Салимжан" style="text;strokeColor=none;fillColor=none;align=left;verticalAlign=middle;spacingLeft=4;spacingRight=4;overflow=hidden;points=[[0,0.5],[1,0.5]];portConstraint=eastwest;rotatable=0;" vertex="1" parent="rBCPS_vHP3lWqxY93a7a-29">
          <mxGeometry y="60" width="140" height="30" as="geometry" />
        </mxCell>
        <mxCell id="rBCPS_vHP3lWqxY93a7a-32" value="Фролова Светлана" style="text;strokeColor=none;fillColor=none;align=left;verticalAlign=middle;spacingLeft=4;spacingRight=4;overflow=hidden;points=[[0,0.5],[1,0.5]];portConstraint=eastwest;rotatable=0;" vertex="1" parent="rBCPS_vHP3lWqxY93a7a-29">
          <mxGeometry y="90" width="140" height="30" as="geometry" />
        </mxCell>
        <mxCell id="rBCPS_vHP3lWqxY93a7a-33" value="Турсумамбетова Айтолкун" style="text;strokeColor=none;fillColor=none;align=left;verticalAlign=middle;spacingLeft=4;spacingRight=4;overflow=hidden;points=[[0,0.5],[1,0.5]];portConstraint=eastwest;rotatable=0;" vertex="1" parent="rBCPS_vHP3lWqxY93a7a-29">
          <mxGeometry y="120" width="140" height="30" as="geometry" />
        </mxCell>
        <mxCell id="rBCPS_vHP3lWqxY93a7a-34" value="Жумакеева Алия" style="text;strokeColor=none;fillColor=none;align=left;verticalAlign=middle;spacingLeft=4;spacingRight=4;overflow=hidden;points=[[0,0.5],[1,0.5]];portConstraint=eastwest;rotatable=0;" vertex="1" parent="rBCPS_vHP3lWqxY93a7a-29">
          <mxGeometry y="150" width="140" height="30" as="geometry" />
        </mxCell>
        <mxCell id="rBCPS_vHP3lWqxY93a7a-35" value="Алмаз байке" style="swimlane;fontStyle=0;childLayout=stackLayout;horizontal=1;startSize=30;horizontalStack=0;resizeParent=1;resizeParentMax=0;resizeLast=0;collapsible=1;marginBottom=0;" vertex="1" parent="1">
          <mxGeometry x="670" y="160" width="140" height="180" as="geometry" />
        </mxCell>
        <mxCell id="rBCPS_vHP3lWqxY93a7a-36" value="Садыбакунова Салтанат" style="text;strokeColor=none;fillColor=none;align=left;verticalAlign=middle;spacingLeft=4;spacingRight=4;overflow=hidden;points=[[0,0.5],[1,0.5]];portConstraint=eastwest;rotatable=0;" vertex="1" parent="rBCPS_vHP3lWqxY93a7a-35">
          <mxGeometry y="30" width="140" height="30" as="geometry" />
        </mxCell>
        <mxCell id="rBCPS_vHP3lWqxY93a7a-37" value="Бейшеев Темирлан" style="text;strokeColor=none;fillColor=none;align=left;verticalAlign=middle;spacingLeft=4;spacingRight=4;overflow=hidden;points=[[0,0.5],[1,0.5]];portConstraint=eastwest;rotatable=0;" vertex="1" parent="rBCPS_vHP3lWqxY93a7a-35">
          <mxGeometry y="60" width="140" height="30" as="geometry" />
        </mxCell>
        <mxCell id="rBCPS_vHP3lWqxY93a7a-38" value="Амантурова Тунук" style="text;strokeColor=none;fillColor=none;align=left;verticalAlign=middle;spacingLeft=4;spacingRight=4;overflow=hidden;points=[[0,0.5],[1,0.5]];portConstraint=eastwest;rotatable=0;" vertex="1" parent="rBCPS_vHP3lWqxY93a7a-35">
          <mxGeometry y="90" width="140" height="30" as="geometry" />
        </mxCell>
        <mxCell id="rBCPS_vHP3lWqxY93a7a-39" value="Айталыева Камила" style="text;strokeColor=none;fillColor=none;align=left;verticalAlign=middle;spacingLeft=4;spacingRight=4;overflow=hidden;points=[[0,0.5],[1,0.5]];portConstraint=eastwest;rotatable=0;" vertex="1" parent="rBCPS_vHP3lWqxY93a7a-35">
          <mxGeometry y="120" width="140" height="30" as="geometry" />
        </mxCell>
        <mxCell id="rBCPS_vHP3lWqxY93a7a-40" value="Арзыбаева жалмырза" style="text;strokeColor=none;fillColor=none;align=left;verticalAlign=middle;spacingLeft=4;spacingRight=4;overflow=hidden;points=[[0,0.5],[1,0.5]];portConstraint=eastwest;rotatable=0;" vertex="1" parent="rBCPS_vHP3lWqxY93a7a-35">
          <mxGeometry y="150" width="140" height="30" as="geometry" />
        </mxCell>
        <mxCell id="rBCPS_vHP3lWqxY93a7a-41" value="" style="shape=flexArrow;endArrow=classic;html=1;rounded=0;width=24;endSize=6.67;exitX=0.5;exitY=1;exitDx=0;exitDy=0;" edge="1" parent="1" source="rBCPS_vHP3lWqxY93a7a-1">
          <mxGeometry width="50" height="50" relative="1" as="geometry">
            <mxPoint x="119.5" y="110" as="sourcePoint" />
            <mxPoint x="119.5" y="160" as="targetPoint" />
          </mxGeometry>
        </mxCell>
        <mxCell id="rBCPS_vHP3lWqxY93a7a-42" value="" style="shape=flexArrow;endArrow=classic;html=1;rounded=0;width=24;endSize=6.67;exitX=0.5;exitY=1;exitDx=0;exitDy=0;" edge="1" parent="1">
          <mxGeometry width="50" height="50" relative="1" as="geometry">
            <mxPoint x="340.5" y="100" as="sourcePoint" />
            <mxPoint x="340" y="160" as="targetPoint" />
          </mxGeometry>
        </mxCell>
        <mxCell id="rBCPS_vHP3lWqxY93a7a-43" value="" style="shape=flexArrow;endArrow=classic;html=1;rounded=0;width=24;endSize=6.67;exitX=0.5;exitY=1;exitDx=0;exitDy=0;" edge="1" parent="1">
          <mxGeometry width="50" height="50" relative="1" as="geometry">
            <mxPoint x="540" y="100" as="sourcePoint" />
            <mxPoint x="539.5" y="160" as="targetPoint" />
          </mxGeometry>
        </mxCell>
        <mxCell id="rBCPS_vHP3lWqxY93a7a-44" value="" style="shape=flexArrow;endArrow=classic;html=1;rounded=0;width=24;endSize=6.67;exitX=0.5;exitY=1;exitDx=0;exitDy=0;" edge="1" parent="1">
          <mxGeometry width="50" height="50" relative="1" as="geometry">
            <mxPoint x="740" y="100" as="sourcePoint" />
            <mxPoint x="739.5" y="160" as="targetPoint" />
          </mxGeometry>
        </mxCell>
        <mxCell id="rBCPS_vHP3lWqxY93a7a-45" value="&lt;font style=&quot;vertical-align: inherit;&quot;&gt;&lt;font style=&quot;vertical-align: inherit;&quot;&gt;Жанылмырза&lt;/font&gt;&lt;/font&gt;" style="rounded=0;whiteSpace=wrap;html=1;" vertex="1" parent="1">
          <mxGeometry x="320" y="480" width="120" height="60" as="geometry" />
        </mxCell>
        <mxCell id="rBCPS_vHP3lWqxY93a7a-46" value="" style="curved=1;endArrow=classic;html=1;rounded=0;entryX=0.5;entryY=1;entryDx=0;entryDy=0;entryPerimeter=0;exitX=0;exitY=0.5;exitDx=0;exitDy=0;" edge="1" parent="1" source="rBCPS_vHP3lWqxY93a7a-45">
          <mxGeometry width="50" height="50" relative="1" as="geometry">
            <mxPoint x="270" y="540" as="sourcePoint" />
            <mxPoint x="120" y="340" as="targetPoint" />
            <Array as="points">
              <mxPoint x="320" y="540" />
              <mxPoint x="90" y="550" />
            </Array>
          </mxGeometry>
        </mxCell>
        <mxCell id="rBCPS_vHP3lWqxY93a7a-47" value="" style="curved=1;endArrow=classic;html=1;rounded=0;entryX=0.471;entryY=1;entryDx=0;entryDy=0;entryPerimeter=0;exitX=0;exitY=0;exitDx=0;exitDy=0;" edge="1" parent="1" source="rBCPS_vHP3lWqxY93a7a-45" target="rBCPS_vHP3lWqxY93a7a-28">
          <mxGeometry width="50" height="50" relative="1" as="geometry">
            <mxPoint x="320" y="420" as="sourcePoint" />
            <mxPoint x="370" y="370" as="targetPoint" />
            <Array as="points">
              <mxPoint x="290" y="430" />
              <mxPoint x="300" y="370" />
            </Array>
          </mxGeometry>
        </mxCell>
        <mxCell id="rBCPS_vHP3lWqxY93a7a-48" value="" style="curved=1;endArrow=classic;html=1;rounded=0;entryX=0.5;entryY=1;entryDx=0;entryDy=0;entryPerimeter=0;exitX=1;exitY=0;exitDx=0;exitDy=0;" edge="1" parent="1" source="rBCPS_vHP3lWqxY93a7a-45" target="rBCPS_vHP3lWqxY93a7a-34">
          <mxGeometry width="50" height="50" relative="1" as="geometry">
            <mxPoint x="480" y="460" as="sourcePoint" />
            <mxPoint x="530" y="410" as="targetPoint" />
            <Array as="points">
              <mxPoint x="530" y="460" />
              <mxPoint x="560" y="410" />
            </Array>
          </mxGeometry>
        </mxCell>
        <mxCell id="rBCPS_vHP3lWqxY93a7a-49" value="" style="curved=1;endArrow=classic;html=1;rounded=0;exitX=1;exitY=0.5;exitDx=0;exitDy=0;entryX=0.521;entryY=1.1;entryDx=0;entryDy=0;entryPerimeter=0;" edge="1" parent="1" source="rBCPS_vHP3lWqxY93a7a-45" target="rBCPS_vHP3lWqxY93a7a-40">
          <mxGeometry width="50" height="50" relative="1" as="geometry">
            <mxPoint x="450" y="540" as="sourcePoint" />
            <mxPoint x="500" y="490" as="targetPoint" />
            <Array as="points">
              <mxPoint x="500" y="540" />
              <mxPoint x="640" y="530" />
              <mxPoint x="750" y="490" />
            </Array>
          </mxGeometry>
        </mxCell>
        <mxCell id="rBCPS_vHP3lWqxY93a7a-50" value="1 группа&amp;nbsp;" style="rounded=0;whiteSpace=wrap;html=1;" vertex="1" parent="1">
          <mxGeometry x="1010" y="40" width="120" height="60" as="geometry" />
        </mxCell>
        <mxCell id="rBCPS_vHP3lWqxY93a7a-51" value="2 группа" style="rounded=0;whiteSpace=wrap;html=1;" vertex="1" parent="1">
          <mxGeometry x="1230" y="40" width="120" height="60" as="geometry" />
        </mxCell>
        <mxCell id="rBCPS_vHP3lWqxY93a7a-52" value="3 группа" style="rounded=0;whiteSpace=wrap;html=1;" vertex="1" parent="1">
          <mxGeometry x="1430" y="40" width="120" height="60" as="geometry" />
        </mxCell>
        <mxCell id="rBCPS_vHP3lWqxY93a7a-53" value="4 группа" style="rounded=0;whiteSpace=wrap;html=1;" vertex="1" parent="1">
          <mxGeometry x="1630" y="40" width="120" height="60" as="geometry" />
        </mxCell>
        <mxCell id="rBCPS_vHP3lWqxY93a7a-60" value="Кайрат" style="swimlane;fontStyle=0;childLayout=stackLayout;horizontal=1;startSize=30;horizontalStack=0;resizeParent=1;resizeParentMax=0;resizeLast=0;collapsible=1;marginBottom=0;" vertex="1" parent="1">
          <mxGeometry x="1220" y="160" width="140" height="230" as="geometry" />
        </mxCell>
        <mxCell id="rBCPS_vHP3lWqxY93a7a-61" value="Азимов Мухамедали" style="text;strokeColor=none;fillColor=none;align=left;verticalAlign=middle;spacingLeft=4;spacingRight=4;overflow=hidden;points=[[0,0.5],[1,0.5]];portConstraint=eastwest;rotatable=0;" vertex="1" parent="rBCPS_vHP3lWqxY93a7a-60">
          <mxGeometry y="30" width="140" height="30" as="geometry" />
        </mxCell>
        <mxCell id="rBCPS_vHP3lWqxY93a7a-62" value="Аскеров Адилет" style="text;strokeColor=none;fillColor=none;align=left;verticalAlign=middle;spacingLeft=4;spacingRight=4;overflow=hidden;points=[[0,0.5],[1,0.5]];portConstraint=eastwest;rotatable=0;" vertex="1" parent="rBCPS_vHP3lWqxY93a7a-60">
          <mxGeometry y="60" width="140" height="30" as="geometry" />
        </mxCell>
        <mxCell id="rBCPS_vHP3lWqxY93a7a-63" value="Рахатбекова Магида" style="text;strokeColor=none;fillColor=none;align=left;verticalAlign=middle;spacingLeft=4;spacingRight=4;overflow=hidden;points=[[0,0.5],[1,0.5]];portConstraint=eastwest;rotatable=0;" vertex="1" parent="rBCPS_vHP3lWqxY93a7a-60">
          <mxGeometry y="90" width="140" height="30" as="geometry" />
        </mxCell>
        <mxCell id="rBCPS_vHP3lWqxY93a7a-88" value="Бактыбеков Бэк" style="text;strokeColor=none;fillColor=none;align=left;verticalAlign=middle;spacingLeft=4;spacingRight=4;overflow=hidden;points=[[0,0.5],[1,0.5]];portConstraint=eastwest;rotatable=0;" vertex="1" parent="rBCPS_vHP3lWqxY93a7a-60">
          <mxGeometry y="120" width="140" height="30" as="geometry" />
        </mxCell>
        <mxCell id="rBCPS_vHP3lWqxY93a7a-65" value="Нурсланбек уллу Ислам" style="text;strokeColor=none;fillColor=none;align=left;verticalAlign=middle;spacingLeft=4;spacingRight=4;overflow=hidden;points=[[0,0.5],[1,0.5]];portConstraint=eastwest;rotatable=0;" vertex="1" parent="rBCPS_vHP3lWqxY93a7a-60">
          <mxGeometry y="150" width="140" height="40" as="geometry" />
        </mxCell>
        <mxCell id="rBCPS_vHP3lWqxY93a7a-89" value="Шаршенбиев Эрмек" style="text;strokeColor=none;fillColor=none;align=left;verticalAlign=middle;spacingLeft=4;spacingRight=4;overflow=hidden;points=[[0,0.5],[1,0.5]];portConstraint=eastwest;rotatable=0;" vertex="1" parent="rBCPS_vHP3lWqxY93a7a-60">
          <mxGeometry y="190" width="140" height="40" as="geometry" />
        </mxCell>
        <mxCell id="rBCPS_vHP3lWqxY93a7a-78" value="" style="shape=flexArrow;endArrow=classic;html=1;rounded=0;width=24;endSize=6.67;exitX=0.5;exitY=1;exitDx=0;exitDy=0;" edge="1" parent="1" source="rBCPS_vHP3lWqxY93a7a-50">
          <mxGeometry width="50" height="50" relative="1" as="geometry">
            <mxPoint x="1069.5" y="110" as="sourcePoint" />
            <mxPoint x="1069.5" y="160" as="targetPoint" />
          </mxGeometry>
        </mxCell>
        <mxCell id="rBCPS_vHP3lWqxY93a7a-79" value="" style="shape=flexArrow;endArrow=classic;html=1;rounded=0;width=24;endSize=6.67;exitX=0.5;exitY=1;exitDx=0;exitDy=0;" edge="1" parent="1">
          <mxGeometry width="50" height="50" relative="1" as="geometry">
            <mxPoint x="1290.5" y="100" as="sourcePoint" />
            <mxPoint x="1290" y="160" as="targetPoint" />
          </mxGeometry>
        </mxCell>
        <mxCell id="rBCPS_vHP3lWqxY93a7a-80" value="" style="shape=flexArrow;endArrow=classic;html=1;rounded=0;width=24;endSize=6.67;exitX=0.5;exitY=1;exitDx=0;exitDy=0;" edge="1" parent="1">
          <mxGeometry width="50" height="50" relative="1" as="geometry">
            <mxPoint x="1490" y="100" as="sourcePoint" />
            <mxPoint x="1489.5" y="160" as="targetPoint" />
          </mxGeometry>
        </mxCell>
        <mxCell id="rBCPS_vHP3lWqxY93a7a-81" value="" style="shape=flexArrow;endArrow=classic;html=1;rounded=0;width=24;endSize=6.67;exitX=0.5;exitY=1;exitDx=0;exitDy=0;" edge="1" parent="1">
          <mxGeometry width="50" height="50" relative="1" as="geometry">
            <mxPoint x="1690" y="100" as="sourcePoint" />
            <mxPoint x="1689.5" y="160" as="targetPoint" />
          </mxGeometry>
        </mxCell>
        <mxCell id="rBCPS_vHP3lWqxY93a7a-82" value="&lt;font style=&quot;vertical-align: inherit;&quot;&gt;&lt;font style=&quot;vertical-align: inherit;&quot;&gt;Жанылмырза&lt;/font&gt;&lt;/font&gt;" style="rounded=0;whiteSpace=wrap;html=1;" vertex="1" parent="1">
          <mxGeometry x="1280" y="520" width="120" height="60" as="geometry" />
        </mxCell>
        <mxCell id="rBCPS_vHP3lWqxY93a7a-87" value="2 поток" style="rounded=0;whiteSpace=wrap;html=1;" vertex="1" parent="1">
          <mxGeometry x="1300" width="120" height="30" as="geometry" />
        </mxCell>
        <mxCell id="rBCPS_vHP3lWqxY93a7a-98" value="Кубаныч" style="swimlane;fontStyle=0;childLayout=stackLayout;horizontal=1;startSize=30;horizontalStack=0;resizeParent=1;resizeParentMax=0;resizeLast=0;collapsible=1;marginBottom=0;" vertex="1" parent="1">
          <mxGeometry x="1410" y="160" width="140" height="230" as="geometry" />
        </mxCell>
        <mxCell id="rBCPS_vHP3lWqxY93a7a-99" value="Халвай улуу Курванали" style="text;strokeColor=none;fillColor=none;align=left;verticalAlign=middle;spacingLeft=4;spacingRight=4;overflow=hidden;points=[[0,0.5],[1,0.5]];portConstraint=eastwest;rotatable=0;" vertex="1" parent="rBCPS_vHP3lWqxY93a7a-98">
          <mxGeometry y="30" width="140" height="30" as="geometry" />
        </mxCell>
        <mxCell id="rBCPS_vHP3lWqxY93a7a-100" value="Карасатортова Адеми" style="text;strokeColor=none;fillColor=none;align=left;verticalAlign=middle;spacingLeft=4;spacingRight=4;overflow=hidden;points=[[0,0.5],[1,0.5]];portConstraint=eastwest;rotatable=0;" vertex="1" parent="rBCPS_vHP3lWqxY93a7a-98">
          <mxGeometry y="60" width="140" height="30" as="geometry" />
        </mxCell>
        <mxCell id="rBCPS_vHP3lWqxY93a7a-101" value="Окенов нургигит" style="text;strokeColor=none;fillColor=none;align=left;verticalAlign=middle;spacingLeft=4;spacingRight=4;overflow=hidden;points=[[0,0.5],[1,0.5]];portConstraint=eastwest;rotatable=0;" vertex="1" parent="rBCPS_vHP3lWqxY93a7a-98">
          <mxGeometry y="90" width="140" height="30" as="geometry" />
        </mxCell>
        <mxCell id="rBCPS_vHP3lWqxY93a7a-102" value="Шаршеналиев Саламат" style="text;strokeColor=none;fillColor=none;align=left;verticalAlign=middle;spacingLeft=4;spacingRight=4;overflow=hidden;points=[[0,0.5],[1,0.5]];portConstraint=eastwest;rotatable=0;" vertex="1" parent="rBCPS_vHP3lWqxY93a7a-98">
          <mxGeometry y="120" width="140" height="30" as="geometry" />
        </mxCell>
        <mxCell id="rBCPS_vHP3lWqxY93a7a-103" value="Эсенова Кымбат" style="text;strokeColor=none;fillColor=none;align=left;verticalAlign=middle;spacingLeft=4;spacingRight=4;overflow=hidden;points=[[0,0.5],[1,0.5]];portConstraint=eastwest;rotatable=0;" vertex="1" parent="rBCPS_vHP3lWqxY93a7a-98">
          <mxGeometry y="150" width="140" height="40" as="geometry" />
        </mxCell>
        <mxCell id="rBCPS_vHP3lWqxY93a7a-104" value="Барчынбеков Бекзат" style="text;strokeColor=none;fillColor=none;align=left;verticalAlign=middle;spacingLeft=4;spacingRight=4;overflow=hidden;points=[[0,0.5],[1,0.5]];portConstraint=eastwest;rotatable=0;" vertex="1" parent="rBCPS_vHP3lWqxY93a7a-98">
          <mxGeometry y="190" width="140" height="40" as="geometry" />
        </mxCell>
        <mxCell id="rBCPS_vHP3lWqxY93a7a-105" value="Алмаз байке" style="swimlane;fontStyle=0;childLayout=stackLayout;horizontal=1;startSize=30;horizontalStack=0;resizeParent=1;resizeParentMax=0;resizeLast=0;collapsible=1;marginBottom=0;" vertex="1" parent="1">
          <mxGeometry x="1640" y="160" width="140" height="230" as="geometry" />
        </mxCell>
        <mxCell id="rBCPS_vHP3lWqxY93a7a-106" value="Касенов Жандос" style="text;strokeColor=none;fillColor=none;align=left;verticalAlign=middle;spacingLeft=4;spacingRight=4;overflow=hidden;points=[[0,0.5],[1,0.5]];portConstraint=eastwest;rotatable=0;" vertex="1" parent="rBCPS_vHP3lWqxY93a7a-105">
          <mxGeometry y="30" width="140" height="30" as="geometry" />
        </mxCell>
        <mxCell id="rBCPS_vHP3lWqxY93a7a-107" value="Касенов Элдос" style="text;strokeColor=none;fillColor=none;align=left;verticalAlign=middle;spacingLeft=4;spacingRight=4;overflow=hidden;points=[[0,0.5],[1,0.5]];portConstraint=eastwest;rotatable=0;" vertex="1" parent="rBCPS_vHP3lWqxY93a7a-105">
          <mxGeometry y="60" width="140" height="30" as="geometry" />
        </mxCell>
        <mxCell id="rBCPS_vHP3lWqxY93a7a-108" value="Калпаева Сезим" style="text;strokeColor=none;fillColor=none;align=left;verticalAlign=middle;spacingLeft=4;spacingRight=4;overflow=hidden;points=[[0,0.5],[1,0.5]];portConstraint=eastwest;rotatable=0;" vertex="1" parent="rBCPS_vHP3lWqxY93a7a-105">
          <mxGeometry y="90" width="140" height="30" as="geometry" />
        </mxCell>
        <mxCell id="rBCPS_vHP3lWqxY93a7a-109" value="Джумаев Атай" style="text;strokeColor=none;fillColor=none;align=left;verticalAlign=middle;spacingLeft=4;spacingRight=4;overflow=hidden;points=[[0,0.5],[1,0.5]];portConstraint=eastwest;rotatable=0;" vertex="1" parent="rBCPS_vHP3lWqxY93a7a-105">
          <mxGeometry y="120" width="140" height="30" as="geometry" />
        </mxCell>
        <mxCell id="rBCPS_vHP3lWqxY93a7a-110" value="Акмат кызы Жанылай" style="text;strokeColor=none;fillColor=none;align=left;verticalAlign=middle;spacingLeft=4;spacingRight=4;overflow=hidden;points=[[0,0.5],[1,0.5]];portConstraint=eastwest;rotatable=0;" vertex="1" parent="rBCPS_vHP3lWqxY93a7a-105">
          <mxGeometry y="150" width="140" height="40" as="geometry" />
        </mxCell>
        <mxCell id="rBCPS_vHP3lWqxY93a7a-111" value="Ясынов байхан" style="text;strokeColor=none;fillColor=none;align=left;verticalAlign=middle;spacingLeft=4;spacingRight=4;overflow=hidden;points=[[0,0.5],[1,0.5]];portConstraint=eastwest;rotatable=0;" vertex="1" parent="rBCPS_vHP3lWqxY93a7a-105">
          <mxGeometry y="190" width="140" height="40" as="geometry" />
        </mxCell>
        <mxCell id="rBCPS_vHP3lWqxY93a7a-113" value="Жыргал Кусеевна" style="swimlane;fontStyle=0;childLayout=stackLayout;horizontal=1;startSize=30;horizontalStack=0;resizeParent=1;resizeParentMax=0;resizeLast=0;collapsible=1;marginBottom=0;" vertex="1" parent="1">
          <mxGeometry x="1000" y="160" width="140" height="230" as="geometry" />
        </mxCell>
        <mxCell id="rBCPS_vHP3lWqxY93a7a-114" value="Жасынова Жанара" style="text;strokeColor=none;fillColor=none;align=left;verticalAlign=middle;spacingLeft=4;spacingRight=4;overflow=hidden;points=[[0,0.5],[1,0.5]];portConstraint=eastwest;rotatable=0;" vertex="1" parent="rBCPS_vHP3lWqxY93a7a-113">
          <mxGeometry y="30" width="140" height="30" as="geometry" />
        </mxCell>
        <mxCell id="rBCPS_vHP3lWqxY93a7a-115" value="Аманкулова Тансулуу" style="text;strokeColor=none;fillColor=none;align=left;verticalAlign=middle;spacingLeft=4;spacingRight=4;overflow=hidden;points=[[0,0.5],[1,0.5]];portConstraint=eastwest;rotatable=0;" vertex="1" parent="rBCPS_vHP3lWqxY93a7a-113">
          <mxGeometry y="60" width="140" height="30" as="geometry" />
        </mxCell>
        <mxCell id="rBCPS_vHP3lWqxY93a7a-116" value="Ормонов Медербек" style="text;strokeColor=none;fillColor=none;align=left;verticalAlign=middle;spacingLeft=4;spacingRight=4;overflow=hidden;points=[[0,0.5],[1,0.5]];portConstraint=eastwest;rotatable=0;" vertex="1" parent="rBCPS_vHP3lWqxY93a7a-113">
          <mxGeometry y="90" width="140" height="30" as="geometry" />
        </mxCell>
        <mxCell id="rBCPS_vHP3lWqxY93a7a-117" value="Жамгырчиев Куттубек" style="text;strokeColor=none;fillColor=none;align=left;verticalAlign=middle;spacingLeft=4;spacingRight=4;overflow=hidden;points=[[0,0.5],[1,0.5]];portConstraint=eastwest;rotatable=0;" vertex="1" parent="rBCPS_vHP3lWqxY93a7a-113">
          <mxGeometry y="120" width="140" height="30" as="geometry" />
        </mxCell>
        <mxCell id="rBCPS_vHP3lWqxY93a7a-118" value="Жумабеков бекжан" style="text;strokeColor=none;fillColor=none;align=left;verticalAlign=middle;spacingLeft=4;spacingRight=4;overflow=hidden;points=[[0,0.5],[1,0.5]];portConstraint=eastwest;rotatable=0;" vertex="1" parent="rBCPS_vHP3lWqxY93a7a-113">
          <mxGeometry y="150" width="140" height="40" as="geometry" />
        </mxCell>
        <mxCell id="rBCPS_vHP3lWqxY93a7a-119" value="Мухамедов Алмат" style="text;strokeColor=none;fillColor=none;align=left;verticalAlign=middle;spacingLeft=4;spacingRight=4;overflow=hidden;points=[[0,0.5],[1,0.5]];portConstraint=eastwest;rotatable=0;" vertex="1" parent="rBCPS_vHP3lWqxY93a7a-113">
          <mxGeometry y="190" width="140" height="40" as="geometry" />
        </mxCell>
        <mxCell id="rBCPS_vHP3lWqxY93a7a-122" value="" style="curved=1;endArrow=classic;html=1;rounded=0;entryX=0.3;entryY=1.125;entryDx=0;entryDy=0;entryPerimeter=0;exitX=0;exitY=0.883;exitDx=0;exitDy=0;exitPerimeter=0;" edge="1" parent="1" source="rBCPS_vHP3lWqxY93a7a-82" target="rBCPS_vHP3lWqxY93a7a-119">
          <mxGeometry width="50" height="50" relative="1" as="geometry">
            <mxPoint x="1050" y="470" as="sourcePoint" />
            <mxPoint x="1100" y="420" as="targetPoint" />
            <Array as="points">
              <mxPoint x="1070" y="550" />
              <mxPoint x="1050" y="420" />
            </Array>
          </mxGeometry>
        </mxCell>
        <mxCell id="rBCPS_vHP3lWqxY93a7a-123" value="" style="curved=1;endArrow=classic;html=1;rounded=0;entryX=0.5;entryY=1.075;entryDx=0;entryDy=0;entryPerimeter=0;exitX=0;exitY=0;exitDx=0;exitDy=0;" edge="1" parent="1" source="rBCPS_vHP3lWqxY93a7a-82" target="rBCPS_vHP3lWqxY93a7a-89">
          <mxGeometry width="50" height="50" relative="1" as="geometry">
            <mxPoint x="1270" y="470" as="sourcePoint" />
            <mxPoint x="1320" y="420" as="targetPoint" />
            <Array as="points">
              <mxPoint x="1260" y="480" />
              <mxPoint x="1270" y="420" />
            </Array>
          </mxGeometry>
        </mxCell>
        <mxCell id="rBCPS_vHP3lWqxY93a7a-131" value="" style="curved=1;endArrow=classic;html=1;rounded=0;entryX=0.5;entryY=1;entryDx=0;entryDy=0;entryPerimeter=0;exitX=1;exitY=0;exitDx=0;exitDy=0;" edge="1" parent="1" source="rBCPS_vHP3lWqxY93a7a-82" target="rBCPS_vHP3lWqxY93a7a-104">
          <mxGeometry width="50" height="50" relative="1" as="geometry">
            <mxPoint x="1430" y="490" as="sourcePoint" />
            <mxPoint x="1480" y="440" as="targetPoint" />
            <Array as="points">
              <mxPoint x="1480" y="490" />
            </Array>
          </mxGeometry>
        </mxCell>
        <mxCell id="rBCPS_vHP3lWqxY93a7a-132" value="" style="curved=1;endArrow=classic;html=1;rounded=0;exitX=1;exitY=1;exitDx=0;exitDy=0;entryX=0.457;entryY=1.125;entryDx=0;entryDy=0;entryPerimeter=0;" edge="1" parent="1" source="rBCPS_vHP3lWqxY93a7a-82" target="rBCPS_vHP3lWqxY93a7a-111">
          <mxGeometry width="50" height="50" relative="1" as="geometry">
            <mxPoint x="1470" y="580" as="sourcePoint" />
            <mxPoint x="1520" y="530" as="targetPoint" />
            <Array as="points">
              <mxPoint x="1520" y="580" />
              <mxPoint x="1650" y="540" />
            </Array>
          </mxGeometry>
        </mxCell>
        <mxCell id="rBCPS_vHP3lWqxY93a7a-133" value="1 поток" style="rounded=0;whiteSpace=wrap;html=1;" vertex="1" parent="1">
          <mxGeometry x="350" width="120" height="30" as="geometry" />
        </mxCell>
        <mxCell id="rBCPS_vHP3lWqxY93a7a-140" value="жыргал кусеевна" style="swimlane;fontStyle=0;childLayout=stackLayout;horizontal=1;startSize=30;horizontalStack=0;resizeParent=1;resizeParentMax=0;resizeLast=0;collapsible=1;marginBottom=0;" vertex="1" parent="1">
          <mxGeometry x="50" y="160" width="140" height="180" as="geometry" />
        </mxCell>
        <mxCell id="rBCPS_vHP3lWqxY93a7a-141" value="Муратбеков Куткелди" style="text;strokeColor=none;fillColor=none;align=left;verticalAlign=middle;spacingLeft=4;spacingRight=4;overflow=hidden;points=[[0,0.5],[1,0.5]];portConstraint=eastwest;rotatable=0;" vertex="1" parent="rBCPS_vHP3lWqxY93a7a-140">
          <mxGeometry y="30" width="140" height="30" as="geometry" />
        </mxCell>
        <mxCell id="rBCPS_vHP3lWqxY93a7a-142" value="Азизканов жаныбек" style="text;strokeColor=none;fillColor=none;align=left;verticalAlign=middle;spacingLeft=4;spacingRight=4;overflow=hidden;points=[[0,0.5],[1,0.5]];portConstraint=eastwest;rotatable=0;" vertex="1" parent="rBCPS_vHP3lWqxY93a7a-140">
          <mxGeometry y="60" width="140" height="30" as="geometry" />
        </mxCell>
        <mxCell id="rBCPS_vHP3lWqxY93a7a-143" value="Сергеев Бекжан" style="text;strokeColor=none;fillColor=none;align=left;verticalAlign=middle;spacingLeft=4;spacingRight=4;overflow=hidden;points=[[0,0.5],[1,0.5]];portConstraint=eastwest;rotatable=0;" vertex="1" parent="rBCPS_vHP3lWqxY93a7a-140">
          <mxGeometry y="90" width="140" height="30" as="geometry" />
        </mxCell>
        <mxCell id="rBCPS_vHP3lWqxY93a7a-144" value="Адылбекова Сезим" style="text;strokeColor=none;fillColor=none;align=left;verticalAlign=middle;spacingLeft=4;spacingRight=4;overflow=hidden;points=[[0,0.5],[1,0.5]];portConstraint=eastwest;rotatable=0;" vertex="1" parent="rBCPS_vHP3lWqxY93a7a-140">
          <mxGeometry y="120" width="140" height="30" as="geometry" />
        </mxCell>
        <mxCell id="rBCPS_vHP3lWqxY93a7a-145" value="Тургучпаев Жумагул" style="text;strokeColor=none;fillColor=none;align=left;verticalAlign=middle;spacingLeft=4;spacingRight=4;overflow=hidden;points=[[0,0.5],[1,0.5]];portConstraint=eastwest;rotatable=0;" vertex="1" parent="rBCPS_vHP3lWqxY93a7a-140">
          <mxGeometry y="150" width="140" height="30" as="geometry" />
        </mxCell>
      </root>
    </mxGraphModel>
  </diagram>
</mxfile>
